<svg width="400" height="400" viewBox="0 0 400 400" fill="none" xmlns="http://www.w3.org/2000/svg">
<path fill-rule="evenodd" clip-rule="evenodd" d="M400 400H0V0H400V400ZM262.57 258.825L181.63 284.984H173.4L92.8203 262.471V118.738L85 124.909V267.95L173.021 292.317H181.99L263.201 266.534L270.381 264.421V124.909L262.57 118.738V258.825ZM294.671 131.658V252.726H294.682L303.302 282.851L311.911 252.726V131.658H294.671ZM181.41 161.406V277.165L254.73 255.119V119.069L181.41 161.406ZM100.551 255.136L173.4 277.119V161.127L100.551 119.065V255.136ZM303.302 107C298.532 107 294.682 110.854 294.682 115.621V124.908H311.911V115.621C311.911 110.854 308.062 107 303.302 107Z" fill="#C21F33"/>
</svg>
