<svg width="400" height="400" viewBox="0 0 400 400" fill="none" xmlns="http://www.w3.org/2000/svg">
<path fill-rule="evenodd" clip-rule="evenodd" d="M200 0C310.457 0 400 89.5431 400 200C400 310.457 310.457 400 200 400C89.5431 400 0 310.457 0 200C0 89.5431 89.5431 0 200 0ZM91.7168 199.916C90.2085 199.916 89 201.128 89 202.624L89.1377 203.845C95.6669 241.453 124.696 272.191 163.191 284.054V289.766C163.187 289.803 163.171 289.849 163.171 289.891C163.171 289.941 163.187 289.987 163.191 290.028C163.25 291.441 164.404 292.566 165.825 292.595C165.846 292.595 165.858 292.603 165.879 292.604C165.9 292.604 165.925 292.595 165.945 292.595H232.945C232.962 292.595 232.983 292.603 233.004 292.604C233.021 292.604 233.042 292.595 233.062 292.595C234.525 292.566 235.692 291.378 235.704 289.911L235.712 289.891C235.71 289.889 235.704 289.881 235.704 289.874V283.411C273.421 271.044 301.675 240.478 307.892 203.224C307.904 203.145 307.916 203.07 307.925 202.999C307.95 202.87 307.962 202.753 307.962 202.624C307.962 201.128 306.758 199.916 305.254 199.916H91.7168ZM159.938 106.828C156.75 105.186 152.604 106.062 150.671 108.778C149.779 110.032 129.146 139.732 151.125 163.749C161.204 174.778 160.334 184.508 157.463 191.07H171.559C174.409 181.374 173.229 169.211 161.779 156.703C145.583 139.007 161.979 115.082 162.237 114.703C164.154 111.986 163.133 108.47 159.938 106.828ZM202.429 106.828C199.245 105.199 195.095 106.066 193.162 108.778C192.273 110.031 171.63 139.734 193.621 163.749C203.696 174.778 202.821 184.508 199.95 191.07H214.05C216.9 181.37 215.717 169.207 204.275 156.703C188.08 139.003 204.462 115.095 204.721 114.703C206.646 111.986 205.625 108.474 202.429 106.828ZM244.921 106.828C241.725 105.195 237.583 106.066 235.642 108.778C234.762 110.033 214.13 139.732 236.104 163.749C246.179 174.774 245.304 184.5 242.429 191.07H256.521C259.375 181.37 258.2 169.207 246.754 156.703C230.569 139.009 246.958 115.088 247.208 114.716C249.141 111.987 248.108 108.47 244.921 106.828Z" fill="#D2A02A"/>
</svg>
